<?xml version="1.0" standalone="no"?>
<!DOCTYPE svg PUBLIC "-//W3C//DTD SVG 20010904//EN"
 "http://www.w3.org/TR/2001/REC-SVG-20010904/DTD/svg10.dtd">
<svg version="1.0" xmlns="http://www.w3.org/2000/svg"
 width="1024.000000pt" height="1024.000000pt" viewBox="0 0 1024.000000 1024.000000"
 preserveAspectRatio="xMidYMid meet">

<g transform="translate(0.000000,1024.000000) scale(0.100000,-0.100000)"
fill="#000000" stroke="none">
<path d="M0 5120 l0 -5120 5120 0 5120 0 0 5120 0 5120 -5120 0 -5120 0 0
-5120z m5119 2155 l-1 -125 -74 -54 c-85 -62 -383 -212 -564 -284 -119 -47
-184 -64 -365 -98 -95 -18 -260 -12 -349 11 -33 9 -66 13 -73 10 -8 -2 -12 -1
-9 3 3 5 -23 14 -57 22 l-62 13 145 22 c483 75 940 261 1310 534 52 39 96 70
98 71 2 0 2 -56 1 -125z m214 -112 c-35 -2 -91 -2 -125 0 -35 2 -7 3 62 3 69
0 97 -1 63 -3z m-198 -1453 c8 0 15 -4 15 -10 0 -5 -12 -10 -27 -9 -16 0 -23
3 -17 5 13 6 7 44 -7 44 -5 0 -9 111 -9 249 l0 249 -42 35 c-24 19 -54 45 -68
57 -95 84 -470 294 -484 271 -3 -4 -12 -102 -21 -217 -8 -115 -20 -272 -26
-349 -6 -77 -13 -152 -17 -167 l-7 -27 -70 68 c-183 178 -448 350 -699 452
l-69 28 7 -97 c3 -53 11 -198 17 -322 6 -124 12 -250 15 -280 7 -91 52 -391
71 -469 4 -15 2 -22 -5 -17 -6 4 -8 -2 -5 -15 4 -13 8 -17 13 -9 4 6 10 -7 14
-31 5 -33 3 -45 -8 -51 -8 -5 -22 -15 -30 -23 -13 -14 -16 -11 -26 26 -7 23
-9 50 -7 60 3 11 2 17 -2 14 -10 -5 -45 175 -46 232 0 22 -3 39 -6 37 -25 -15
-43 567 -26 827 l9 127 86 16 c137 27 344 83 505 137 82 27 154 46 160 43 7
-4 9 -4 5 1 -4 4 46 32 112 60 118 52 315 156 418 222 29 18 57 31 63 27 5 -3
8 -1 7 4 -4 14 80 74 93 67 5 -4 8 -2 7 4 -2 6 17 28 42 50 l45 39 3 -679 c2
-594 4 -679 17 -679z m248 1320 c-3 -11 -14 -20 -24 -20 -12 0 -19 7 -19 20 0
14 7 20 24 20 19 0 23 -4 19 -20z m330 4 c12 -7 -26 -9 -135 -6 -84 2 -157 8
-163 14 -14 13 275 6 298 -8z m262 -118 c85 -40 113 -58 109 -69 -3 -8 -1 -18
5 -22 16 -9 13 -25 -4 -25 -8 0 -15 9 -15 20 0 12 -7 20 -17 21 -15 0 -15 2 2
9 16 6 2 16 -80 56 l-100 49 -175 5 -175 6 167 2 168 2 115 -54z m-758 -86 c0
-25 -4 -30 -24 -30 -19 0 -23 5 -23 30 0 25 4 30 23 30 20 0 24 -5 24 -30z
m245 3 c-40 -2 -103 -2 -140 0 -37 2 -4 3 73 3 77 0 107 -2 67 -3z m858 -58
l0 -25 -487 2 -488 3 458 2 c449 3 457 4 457 23 0 16 7 20 30 20 25 0 30 -4
30 -25z m136 -212 c-4 -10 -53 -13 -238 -11 l-233 2 230 6 230 5 5 110 5 110
3 -104 c1 -58 0 -111 -2 -118z m-2903 200 c-7 -2 -21 -2 -30 0 -10 3 -4 5 12
5 17 0 24 -2 18 -5z m-240 -10 c-7 -2 -19 -2 -25 0 -7 3 -2 5 12 5 14 0 19 -2
13 -5z m290 -10 c-7 -2 -21 -2 -30 0 -10 3 -4 5 12 5 17 0 24 -2 18 -5z m3024
-25 c-3 -7 -5 -2 -5 12 0 14 2 19 5 13 2 -7 2 -19 0 -25z m367 -5 c3 -21 6
-158 6 -305 l0 -268 -242 2 -243 2 235 6 235 5 1 180 c1 99 -1 230 -4 292 l-5
112 -36 4 -36 4 41 1 c40 2 42 1 48 -35z m-3337 21 c-3 -3 -12 -4 -19 -1 -8 3
-5 6 6 6 11 1 17 -2 13 -5z m-343 -43 c-2 -3 -12 3 -22 13 -16 17 -16 18 5 5
12 -7 20 -15 17 -18z m893 23 c-3 -3 -12 -4 -19 -1 -8 3 -5 6 6 6 11 1 17 -2
13 -5z m-87 -24 c-8 -5 -22 -9 -30 -9 -10 0 -8 3 5 9 27 12 43 12 25 0z m-61
-14 c-2 -2 -17 -6 -34 -10 -22 -5 -26 -4 -15 4 14 9 59 15 49 6z m1717 -18 c4
-6 -1 -17 -11 -25 -17 -12 -17 -13 -2 -13 9 0 17 -4 17 -9 0 -4 -11 -6 -24 -4
-20 4 -24 10 -21 32 4 33 2 31 19 31 8 0 18 -5 22 -12z m959 2 c3 -6 0 -17 -8
-25 -11 -10 -14 -37 -12 -109 1 -52 -2 -93 -7 -90 -4 3 -8 48 -8 100 0 77 -3
94 -15 94 -8 0 -15 5 -15 11 0 6 8 8 18 5 14 -5 14 -4 -2 9 -19 14 -18 15 11
15 18 0 35 -5 38 -10z m-2756 -4 c-2 -2 -17 -6 -34 -10 -22 -5 -26 -4 -15 4
14 9 59 15 49 6z m1348 -8 c-2 -7 -1 -20 4 -29 7 -14 4 -17 -16 -15 -20 1 -25
6 -25 29 0 21 5 27 21 27 12 0 19 -5 16 -12z m276 -15 c-51 -2 -135 -2 -185 0
-51 1 -10 3 92 3 102 0 143 -2 93 -3z m-1993 -23 c11 -8 7 -9 -15 -4 -37 8
-45 14 -19 14 10 0 26 -5 34 -10z m73 3 c-7 -2 -19 -2 -25 0 -7 3 -2 5 12 5
14 0 19 -2 13 -5z m54 -9 c-3 -3 -12 -4 -19 -1 -8 3 -5 6 6 6 11 1 17 -2 13
-5z m3101 -19 c0 -14 -4 -25 -9 -25 -5 0 -9 -72 -9 -160 l0 -160 -267 2 -268
3 263 2 262 3 0 155 c0 131 -2 155 -15 155 -9 0 -15 9 -15 25 0 21 5 25 29 25
24 0 29 -4 29 -25z m-908 -25 c0 -23 -4 -30 -20 -30 -16 0 -20 7 -20 30 0 23
4 30 20 30 16 0 20 -7 20 -30z m-2383 4 c-3 -3 -12 -4 -19 -1 -8 3 -5 6 6 6
11 1 17 -2 13 -5z m3083 -74 l0 -70 -278 0 -278 0 -53 -54 -53 -54 77 -73 c42
-41 86 -77 98 -81 22 -6 22 -6 -1 -7 -15 -1 -47 24 -102 77 -44 43 -80 83 -80
89 0 6 26 34 59 62 l58 51 269 2 269 3 3 63 c4 84 12 79 12 -8z m-3243 -2 c-3
-8 -6 -5 -6 6 -1 11 2 17 5 13 3 -3 4 -12 1 -19z m2010 -5 l-138 -4 3 -47 3
-47 119 4 119 3 123 -123 c86 -86 124 -131 124 -146 0 -15 6 -23 18 -23 13 0
17 -9 17 -40 0 -35 -3 -40 -22 -40 -21 0 -23 4 -23 64 l0 64 -122 117 -123
117 -122 -6 -123 -6 0 60 0 60 143 -2 142 -2 -138 -3z m317 -140 c83 -80 174
-169 201 -197 l50 -50 -45 38 c-25 21 -112 105 -195 186 -82 81 -159 152 -170
158 -12 7 -14 12 -6 12 7 0 81 -66 165 -147z m1003 55 c-3 -8 -6 -5 -6 6 -1
11 2 17 5 13 3 -3 4 -12 1 -19z m3 -43 l0 -25 -212 2 -213 3 208 2 c199 3 207
4 207 23 0 11 2 20 5 20 3 0 5 -11 5 -25z m-1310 -331 c0 -85 4 -154 8 -154 4
0 8 -9 8 -20 0 -16 -7 -20 -33 -20 -26 0 -33 4 -33 20 0 13 7 20 20 20 19 0
20 7 20 153 l0 153 -75 74 c-41 41 -75 78 -75 82 0 5 36 -28 80 -73 l80 -81 0
-154z m841 296 c6 0 7 5 4 10 -3 6 -1 10 4 10 6 0 11 -13 11 -30 0 -23 -4 -30
-20 -30 -16 0 -20 6 -19 33 0 17 3 26 6 20 2 -7 9 -13 14 -13z m-227 -216 c9
-3 16 -17 16 -30 l0 -24 470 0 c463 0 470 0 470 20 0 11 5 20 11 20 6 0 9 -12
7 -27 -2 -16 -6 -27 -10 -25 -5 1 -277 3 -605 4 -329 1 -552 4 -495 5 99 4
102 4 102 27 0 33 8 40 34 30z m-757 -196 c-2 -24 -4 -5 -4 42 0 47 2 66 4 43
2 -24 2 -62 0 -85z m328 11 c-55 -55 -113 -110 -130 -121 -16 -12 26 34 95
100 69 67 127 122 130 122 2 0 -40 -45 -95 -101z m1405 6 c0 -43 -4 -75 -10
-75 -5 0 -10 12 -11 28 0 15 -3 21 -6 15 -2 -7 -11 -13 -19 -13 -20 0 -17 -18
4 -23 11 -3 9 -5 -8 -6 -21 -1 -25 4 -26 29 -1 27 2 30 27 30 27 0 29 3 29 38
0 34 6 52 17 52 2 0 3 -34 3 -75z m-625 -45 l-541 -5 -82 -75 c-45 -41 -82
-78 -82 -82 0 -5 115 -8 256 -8 l256 0 39 -40 38 -39 93 -4 93 -3 -93 -2 -92
-2 -44 40 -43 40 -255 0 c-140 0 -258 3 -262 7 -4 4 35 47 86 95 l93 87 540
-2 540 -2 -540 -5z m-1085 -39 c0 -15 -5 -18 -22 -13 -14 3 -19 2 -14 -6 4 -7
2 -12 -3 -12 -6 0 -11 11 -11 25 0 20 5 25 25 25 18 0 25 -5 25 -19z m1505
-62 c-5 -7 24 -9 94 -7 56 2 100 -1 98 -6 -2 -5 -47 -8 -101 -7 -67 2 -96 -1
-91 -8 4 -7 -5 -11 -22 -10 -25 0 -26 1 -8 9 17 7 17 9 3 9 -29 1 -21 31 8 31
15 0 23 -4 19 -11z m-1400 -19 c5 -8 12 -7 23 2 15 12 15 11 0 -13 -9 -15 -14
-29 -11 -33 4 -3 57 -6 120 -6 l113 0 -71 -67 c-39 -37 -66 -69 -60 -71 6 -2
11 -15 11 -28 0 -19 -5 -24 -25 -24 -22 0 -25 3 -19 26 4 15 37 55 73 90 l66
63 -125 1 -126 0 4 35 c4 35 15 45 27 25z m-345 -50 c-19 -5 -45 -11 -57 -15
-14 -5 -23 -3 -23 3 0 11 34 19 85 19 29 1 29 0 -5 -7z m15 -20 c-16 -4 -39
-8 -50 -8 -16 0 -15 2 5 8 14 4 36 8 50 8 22 0 22 -1 -5 -8z m191 -20 c33 -16
73 -44 89 -61 l30 -32 -41 32 c-43 34 -153 83 -166 75 -4 -3 -8 0 -8 5 0 19
35 12 96 -19z m-312 11 c3 -5 16 -7 29 -4 18 4 19 3 7 -6 -8 -6 -23 -8 -34 -5
-11 4 -16 2 -12 -4 6 -10 -38 -44 -62 -48 -8 -2 -12 0 -9 3 3 2 9 5 14 5 4 -1
16 7 25 15 14 12 15 19 7 30 -10 11 -8 12 6 7 13 -5 16 -4 11 4 -4 7 -3 12 3
12 5 0 12 -4 15 -9z m-60 -32 c-11 -4 -26 -14 -33 -23 -11 -13 -11 -17 3 -22
13 -5 13 -8 1 -20 -17 -18 -21 -18 -28 0 -4 11 -1 13 11 10 15 -5 15 -4 -1 9
-17 14 -16 16 15 40 17 14 36 23 42 20 5 -4 1 -10 -10 -14z m1612 -14 c-2 -35
-41 -35 -44 0 -1 20 3 25 22 25 19 0 24 -5 22 -25z m482 10 c7 -7 -11 -75 -20
-75 -6 0 -8 6 -5 13 21 57 21 60 -9 53 -16 -4 -101 -9 -189 -11 -159 -4 -165
3 -21 23 46 6 237 4 244 -3z m-2171 -57 c-3 -8 -6 -5 -6 6 -1 11 2 17 5 13 3
-3 4 -12 1 -19z m-36 -50 c-11 -18 -21 -29 -21 -25 0 13 33 67 38 62 3 -2 -5
-19 -17 -37z m1089 2 c0 -20 -5 -30 -15 -30 -8 0 -15 7 -15 15 0 12 -17 15
-96 15 -92 0 -95 -1 -89 -21 6 -17 3 -20 -17 -17 -30 4 -41 58 -11 57 10 0 13
-3 6 -6 -16 -6 -17 -33 -2 -33 5 0 8 4 5 9 -10 15 22 21 115 21 58 0 88 4 84
10 -3 6 3 10 14 10 17 0 21 -6 21 -30z m-1058 -36 c-9 -16 -10 -14 -9 8 1 15
6 23 11 18 4 -4 4 -16 -2 -26z m1822 19 l-340 -3 -34 -35 -34 -35 -195 2 -196
2 197 6 198 5 32 33 33 32 340 -2 340 -3 -341 -2z m-1848 -100 c-8 -8 -12 -3
-21 27 l-7 25 17 -23 c9 -13 14 -26 11 -29z m767 30 c-18 -2 -48 -2 -65 0 -18
2 -4 4 32 4 36 0 50 -2 33 -4z m1401 -30 c-9 -52 -27 -80 -19 -30 l6 37 -138
2 -138 2 135 3 c74 2 139 8 144 13 16 16 17 12 10 -27z m-2194 11 c0 -2 -7 -4
-15 -4 -8 0 -15 4 -15 10 0 5 7 7 15 4 8 -4 15 -8 15 -10z m1605 -11 c-19 -3
-49 -23 -82 -56 l-53 -51 -23 22 c-13 12 -32 23 -43 23 -16 1 -17 2 -2 6 10 2
31 -5 47 -16 l28 -20 42 49 c37 44 46 50 79 49 34 -2 34 -2 7 -6z m-1592 -30
c-7 -2 -21 -2 -30 0 -10 3 -4 5 12 5 17 0 24 -2 18 -5z m1020 -20 c-35 -2 -91
-2 -125 0 -35 2 -7 3 62 3 69 0 97 -1 63 -3z m302 1 c-70 -8 -173 -8 -168 -1
2 4 48 6 101 5 53 0 84 -3 67 -4z m-187 -46 c-15 -23 -19 -23 -224 -23 l-209
-1 207 3 c195 3 208 5 218 23 6 11 13 20 17 20 3 0 -1 -10 -9 -22z m860 -5
c-81 -2 -216 -2 -300 0 -84 1 -18 3 147 3 165 0 234 -2 153 -3z m-780 -46 c3
-23 0 -27 -20 -26 -22 0 -22 1 -3 9 16 7 16 9 4 9 -18 1 -32 25 -21 35 14 15
37 -1 40 -27z m450 -19 l127 -2 -122 -3 c-140 -4 -163 -15 -123 -58 l23 -25
251 -3 251 -2 -250 -3 -250 -2 -37 36 c-21 19 -38 39 -38 43 0 5 -19 4 -42 -2
-24 -5 -101 -11 -173 -12 l-130 -2 130 7 c130 7 220 27 220 49 0 6 7 16 15 21
12 7 16 4 18 -15 3 -25 3 -25 130 -27z m-275 25 c-29 -2 -78 -2 -110 0 -32 2
-8 3 52 3 61 0 87 -1 58 -3z m532 -23 c-11 -5 -40 -8 -65 -8 -45 1 -45 1 -10
8 19 4 49 8 65 8 25 0 27 -1 10 -8z m215 -14 c0 -34 -17 -76 -31 -76 -8 0 -8
4 -2 13 6 6 13 26 16 44 l6 32 -87 4 -87 3 93 2 c91 2 92 2 92 -22z m-1407
-28 c-4 -23 -4 -23 10 1 11 18 15 20 20 9 8 -21 -8 -42 -27 -35 -17 7 -23 47
-7 47 5 0 7 -10 4 -22z m783 -78 c64 -61 61 -65 -6 -9 -33 28 -55 39 -66 35
-14 -5 -15 -4 -4 9 7 8 15 15 18 15 3 0 29 -22 58 -50z m-409 4 c-3 -3 -12 -4
-19 -1 -8 3 -5 6 6 6 11 1 17 -2 13 -5z m231 -1 c-32 -2 -86 -2 -120 0 -35 2
-9 3 57 3 66 0 94 -1 63 -3z m689 -50 c-20 -2 -52 -2 -70 0 -17 2 0 4 38 4 39
0 53 -2 32 -4z m-279 -10 c-32 -2 -84 -2 -115 0 -32 2 -6 3 57 3 63 0 89 -1
58 -3z m335 -61 l-17 -52 -264 0 -263 0 -47 39 c-41 35 -54 40 -107 44 l-60 3
63 2 c60 2 64 0 106 -38 l43 -40 224 0 c123 0 240 3 260 6 33 6 37 10 49 56 7
28 16 46 21 41 5 -5 1 -31 -8 -61z m-955 31 c-86 -2 -230 -2 -320 0 -90 1 -19
3 157 3 176 0 249 -2 163 -3z m-251 -103 c2 -24 -2 -30 -17 -30 -16 0 -20 7
-20 30 0 42 34 42 37 0z m223 -10 c0 -24 -4 -30 -21 -30 -15 0 -19 5 -15 15 4
12 -5 15 -47 17 l-52 2 53 3 c28 2 52 8 52 14 0 5 7 9 15 9 10 0 15 -10 15
-30z m636 -55 c-2 -36 -41 -36 -41 0 0 19 5 25 21 25 17 0 22 -6 20 -25z m301
-5 c-11 -28 -47 -44 -47 -20 0 20 25 50 42 50 14 0 15 -4 5 -30z m-517 7 c0
-2 -20 -18 -44 -35 l-45 -32 -328 3 -328 2 332 3 c225 1 334 5 339 13 9 15 74
55 74 46z m393 -4 c-29 -2 -78 -2 -110 0 -32 2 -8 3 52 3 61 0 87 -1 58 -3z
m-1143 -38 c0 -20 -5 -25 -25 -25 -20 0 -25 5 -25 25 0 20 5 25 25 25 20 0 25
-5 25 -25z m205 -270 l152 -145 98 0 c94 0 99 1 132 30 l34 30 122 -2 122 -2
-120 -3 c-116 -4 -121 -5 -157 -33 -35 -29 -41 -30 -137 -30 l-101 0 -148 145
-148 144 -90 4 -89 3 89 2 88 2 153 -145z m278 62 c4 3 7 1 7 -6 0 -9 80 -11
340 -9 187 2 340 0 340 -4 0 -5 -153 -8 -341 -8 -224 0 -338 -3 -334 -10 4 -6
-5 -10 -19 -10 -22 0 -26 4 -26 31 0 25 3 29 13 20 8 -6 17 -8 20 -4z m-439
-172 c70 -66 135 -122 144 -124 25 -5 41 -21 36 -35 -3 -7 20 -36 50 -64 30
-29 52 -52 48 -52 -4 0 -30 22 -57 50 -26 27 -57 50 -68 52 -11 2 -21 11 -23
20 -1 10 -8 23 -16 30 -7 7 -66 64 -130 126 -87 85 -122 112 -142 112 -16 0
-26 -5 -26 -15 0 -8 8 -15 18 -15 14 0 15 2 2 10 -13 8 -12 10 3 10 26 0 20
-27 -8 -32 -22 -5 -25 -2 -25 27 0 31 1 32 33 26 25 -5 66 -36 161 -126z
m1106 108 c0 -13 -51 -93 -59 -93 -5 0 3 22 18 50 23 44 41 63 41 43z m-1405
-73 l-20 -9 20 -1 c17 -2 17 -3 3 -7 -16 -4 -18 -21 -20 -156 -1 -175 -6 -154
-10 46 l-3 137 25 -1 c23 0 23 -1 5 -9z m155 -65 c0 -21 -5 -25 -30 -25 -25 0
-30 4 -30 25 0 21 5 25 30 25 25 0 30 -4 30 -25z m1177 -7 c-3 -7 -11 -25 -19
-40 l-13 -27 -142 0 c-97 -1 -143 2 -143 10 0 7 40 10 123 9 67 -1 128 -1 134
-1 7 1 19 15 28 31 15 28 43 44 32 18z m-1190 -336 c-1 -53 -3 -7 -3 103 0
110 2 154 3 97 2 -57 2 -147 0 -200z m853 212 c0 -17 -6 -24 -20 -24 -15 0
-20 7 -20 29 0 24 3 28 20 24 13 -3 20 -14 20 -29z m241 -56 c-37 -65 -35 -65
-276 -58 l-180 6 202 2 202 2 28 50 c15 27 34 50 41 50 9 0 4 -17 -17 -52z
m-514 -65 c-20 -2 -52 -2 -70 0 -17 2 0 4 38 4 39 0 53 -2 32 -4z m447 -45
c-4 -7 -19 -28 -32 -45 l-24 -33 -281 0 -280 0 -138 -140 -139 -141 -112 4
-113 3 117 2 c91 2 119 5 125 17 5 8 64 71 132 140 l124 125 273 0 273 0 32
40 c30 37 60 56 43 28z m-651 -41 c3 -8 1 -20 -4 -28 -7 -11 -9 -9 -9 9 0 12
-4 22 -9 22 -5 0 -8 -11 -7 -25 2 -13 -1 -22 -5 -19 -5 3 -9 16 -9 30 0 17 6
24 19 24 10 0 21 -6 24 -13z m-183 -32 c0 -9 -6 -12 -15 -9 -8 4 -15 1 -15 -4
0 -6 10 -13 23 -15 16 -3 13 -5 -10 -6 -29 -1 -33 2 -33 24 0 20 5 25 25 25
15 0 25 -6 25 -15z m398 -62 c-10 -2 -18 -9 -18 -15 0 -5 7 -8 15 -4 8 3 15 1
15 -4 0 -5 55 -11 123 -13 l122 -3 -146 -2 -147 -2 2 25 c1 20 6 25 26 24 17
-1 19 -3 8 -6z m-667 -83 c-58 -57 -71 -76 -71 -101 0 -24 4 -30 15 -25 9 3
15 0 15 -8 0 -8 3 -21 6 -30 5 -12 0 -16 -20 -16 -25 0 -26 2 -25 63 l1 62 69
63 c37 34 71 62 75 62 3 0 -26 -32 -65 -70z m531 -33 l-52 -53 48 -47 48 -47
94 -2 95 -2 -94 -3 -95 -4 -53 53 -53 52 53 56 c28 31 54 54 56 53 3 -2 -19
-27 -47 -56z m-92 -242 c0 -20 -5 -25 -25 -25 -20 0 -25 5 -25 25 0 20 5 25
25 25 20 0 25 -5 25 -25z m-572 8 c-19 -5 -26 -43 -8 -43 5 0 7 7 4 15 -4 8
-2 15 4 15 5 0 12 -9 15 -20 4 -16 0 -20 -19 -20 -20 0 -24 5 -24 30 0 25 4
30 23 29 16 -1 18 -2 5 -6z m385 -20 c-62 -2 -165 -2 -230 0 -65 1 -14 3 112
3 127 0 180 -2 118 -3z m339 -83 c-32 -30 -33 -30 -59 -13 -24 16 -65 19 -378
23 l-350 5 400 5 c220 3 405 6 410 7 6 1 -5 -11 -23 -27z m-110 -101 c-18 -16
-38 -27 -44 -23 -6 4 -96 10 -202 14 l-191 7 165 2 c100 1 187 7 220 16 82 20
89 18 52 -16z m-472 10 c0 -8 5 -8 15 1 13 11 15 8 15 -16 0 -24 -4 -29 -25
-30 -21 -2 -25 2 -25 27 0 16 5 29 10 29 6 0 10 -5 10 -11z m361 -102 c-39
-31 -47 -33 -99 -29 -95 8 -86 19 36 43 48 9 91 17 96 18 5 0 -10 -14 -33 -32z
m-76 -56 c-63 -61 -436 -266 -505 -277 -26 -4 -16 3 40 29 88 40 248 129 281
157 l24 19 -105 2 -105 2 100 8 c152 11 197 20 235 45 36 25 51 31 35 15z
m-3099 -579 c11 -9 61 -64 111 -122 134 -156 123 -155 123 -1 l0 131 45 0 45
0 0 -190 0 -190 -55 0 c-61 0 -55 -5 -204 168 -39 45 -74 82 -78 82 -5 0 -6
-56 -4 -125 l3 -125 -51 0 -51 0 0 188 c0 104 3 192 7 195 13 14 88 6 109 -11z
m1297 8 c4 0 7 -20 7 -45 l0 -45 -212 2 -213 3 -3 33 c-2 19 -1 39 1 45 4 10
172 13 420 7z m1962 -41 l0 -44 -207 -3 -208 -2 0 45 0 45 193 2 c105 2 199 3
207 2 11 -1 15 -13 15 -45z m201 9 c22 -24 76 -86 120 -138 l79 -94 5 134 5
135 43 3 42 3 0 -195 0 -196 -59 0 c-46 0 -62 4 -72 19 -8 10 -57 70 -109 132
l-95 113 -3 -132 -3 -132 -44 0 -45 0 0 189 c0 189 0 190 23 194 59 11 73 7
113 -35z m777 33 c15 -1 17 -15 17 -158 l0 -157 -32 -33 -32 -33 -183 0 -183
0 0 126 0 125 43 -3 42 -3 3 -77 3 -78 99 0 c75 0 106 4 129 18 31 17 31 18
31 100 l0 82 -175 0 -175 0 0 43 c0 24 3 47 7 51 5 5 247 3 406 -3z m-3427
-23 c-3 -13 -5 -33 -5 -45 l-1 -23 -205 0 -205 0 0 45 0 45 210 0 210 0 -4
-22z m964 9 c24 -12 25 -16 28 -137 3 -143 -4 -167 -57 -204 -36 -25 -41 -26
-209 -26 l-172 0 0 126 0 125 43 -3 42 -3 3 -77 3 -78 96 0 c84 0 101 3 130
23 32 22 33 23 33 99 l0 78 -172 2 -173 3 -3 43 -3 42 193 0 c135 0 200 -4
218 -13z m510 -32 l0 -45 -210 0 -210 0 0 45 0 45 210 0 210 0 0 -45z m490 0
l0 -45 -207 2 -208 3 -3 43 -3 42 210 0 211 0 0 -45z m1970 0 l0 -45 -210 0
-210 0 0 45 0 45 210 0 210 0 0 -45z m450 20 c8 -16 22 -25 37 -25 22 0 23 -4
23 -64 0 -59 -2 -66 -31 -90 -17 -14 -41 -26 -55 -26 -13 0 -24 -3 -24 -7 0
-4 30 -38 67 -75 l67 -68 -59 0 -59 0 -100 98 c-58 55 -102 107 -104 120 -3
22 -1 22 101 22 57 0 106 3 109 6 3 3 4 14 1 25 -5 18 -15 19 -179 19 l-174 0
0 45 0 45 183 0 184 0 13 -25z m-4712 -187 l3 -78 164 0 165 0 0 -45 0 -45
-210 0 -210 0 0 126 0 125 43 -3 42 -3 3 -77z m650 -45 l3 -123 -46 0 -45 0 0
124 0 123 43 -1 42 -1 3 -122z m822 47 l0 -80 165 0 165 0 0 -45 0 -45 -210 0
-210 0 0 118 c0 65 3 122 7 125 3 4 24 7 45 7 l38 0 0 -80z m490 -45 l0 -125
-45 0 -45 0 0 118 c0 65 3 122 7 125 3 4 24 7 45 7 l38 0 0 -125z m488 43 l3
-78 165 0 164 0 -3 -42 -4 -43 -206 -3 -207 -2 0 119 c0 129 1 131 55 128 l30
-2 3 -77z m1482 2 l0 -80 165 0 165 0 0 -45 0 -45 -210 0 -210 0 0 125 0 125
45 0 45 0 0 -80z m490 -45 l0 -125 -45 0 -45 0 0 118 c0 65 3 122 7 125 3 4
24 7 45 7 l38 0 0 -125z m-4095 70 l0 -40 -142 -3 -143 -3 0 46 0 46 143 -3
142 -3 0 -40z m1475 0 l0 -45 -140 0 -140 0 0 45 0 45 140 0 140 0 0 -45z
m490 5 l0 -40 -140 0 -140 0 0 24 c0 55 2 56 146 56 l134 0 0 -40z m480 -5 l0
-46 -137 3 c-152 3 -139 -3 -135 66 2 22 4 22 137 22 l135 0 0 -45z m1490 0
l0 -45 -140 0 -140 0 0 45 0 45 140 0 140 0 0 -45z m-4060 -342 c0 -5 -56 -8
-124 -8 -68 0 -122 3 -119 8 2 4 58 7 124 7 65 0 119 -3 119 -7z m168 -57 l52
-50 60 59 c33 33 60 54 60 48 0 -6 -7 -14 -16 -17 -8 -3 -12 -11 -9 -16 4 -6
1 -9 -6 -8 -7 2 -15 -5 -17 -14 -2 -10 2 -18 8 -18 6 0 8 5 4 12 -4 7 -3 8 4
4 6 -4 17 2 24 14 7 11 17 20 23 20 5 0 -15 -25 -45 -55 -48 -49 -82 -72 -65
-45 3 6 -3 10 -14 10 -12 0 -21 -3 -21 -7 0 -5 -3 -19 -7 -32 -4 -17 -3 -22 5
-17 8 5 10 2 6 -8 -9 -24 -19 -19 -22 11 -1 19 -22 48 -63 89 -34 34 -58 67
-55 73 11 17 37 2 94 -53z m212 54 c0 -5 -7 -7 -15 -4 -8 4 -15 8 -15 10 0 2
7 4 15 4 8 0 15 -4 15 -10z m298 5 c-8 -9 -238 -11 -238 -2 0 4 55 7 122 7 67
0 119 -2 116 -5z m40 -20 c-3 -3 -9 2 -12 12 -6 14 -5 15 5 6 7 -7 10 -15 7
-18z m352 5 c0 -19 -7 -20 -135 -20 -128 0 -135 1 -135 20 0 19 7 20 135 20
128 0 135 -1 135 -20z m354 11 c3 -5 -3 -11 -14 -14 -11 -3 -19 -11 -17 -19 2
-7 2 -10 0 -5 -3 4 -59 7 -126 8 -83 0 -115 3 -99 9 26 11 30 22 5 14 -15 -5
-16 -4 -3 5 18 13 246 15 254 2z m296 -1 c-24 -8 -23 -8 8 -9 20 -1 31 3 27 9
-3 6 -1 10 4 10 6 0 11 -9 11 -20 0 -19 -7 -20 -122 -20 -83 0 -118 3 -108 10
8 5 11 10 7 10 -5 0 -5 5 -2 10 4 6 48 10 103 9 64 -1 88 -4 72 -9z m313 3
c-23 -2 -64 -2 -90 0 -26 2 -7 3 42 3 50 0 71 -1 48 -3z m87 -13 c0 -11 -4
-20 -8 -20 -4 0 -8 9 -8 20 0 11 4 20 8 20 4 0 8 -9 8 -20z m350 0 c0 -19 -7
-20 -109 -20 -60 0 -117 -3 -127 -7 -12 -4 -15 -3 -10 5 9 16 -7 15 -22 0 -7
-7 -12 -8 -12 -4 0 4 10 16 23 27 19 16 40 18 140 19 110 0 117 -1 117 -20z
m103 13 c-7 -2 -19 -2 -25 0 -7 3 -2 5 12 5 14 0 19 -2 13 -5z m265 -50 c-1
-43 -2 -48 -5 -20 -2 20 -9 37 -14 37 -7 0 -9 -29 -7 -75 2 -41 0 -75 -4 -75
-5 0 -8 43 -8 95 0 88 1 95 20 95 18 0 20 -6 18 -57z m352 49 c0 -4 -52 -5
-116 -3 -90 2 -115 0 -109 -9 5 -8 35 -11 101 -8 52 2 94 0 94 -4 0 -4 -54 -8
-120 -8 -113 0 -120 1 -120 20 0 19 7 20 135 20 74 0 135 -3 135 -8z m120
-102 l0 -110 -27 1 c-21 1 -23 3 -7 6 19 4 21 12 23 103 1 65 -2 100 -8 100
-6 0 -11 -4 -11 -10 0 -5 -4 -10 -8 -10 -5 0 -9 7 -9 15 0 9 10 15 24 15 23 0
23 -1 23 -110z m360 103 c0 -5 -36 -8 -80 -7 -44 1 -80 -2 -80 -7 0 -4 34 -8
76 -8 42 0 79 -2 82 -5 3 -3 -63 -6 -146 -6 -145 0 -152 1 -152 20 0 19 7 20
150 20 83 0 150 -3 150 -7z m169 -49 c53 -57 58 -68 40 -80 -11 -6 -139 112
-139 128 0 4 11 8 24 8 16 0 40 -18 75 -56z m143 23 c-18 -18 -30 -36 -27 -40
3 -4 2 -5 -2 -2 -9 7 -34 -16 -27 -26 3 -5 17 -2 32 7 22 13 20 10 -9 -17 -29
-29 -35 -40 -33 -71 2 -35 0 -38 -25 -38 -25 1 -25 1 -6 13 15 9 20 22 19 49
0 20 3 36 7 35 4 -1 7 3 7 8 0 6 -5 9 -11 7 -7 -2 13 22 43 52 30 31 56 56 59
56 3 0 -10 -15 -27 -33z m42 -8 c-15 -16 -33 -29 -38 -29 -6 0 4 12 22 26 18
14 29 30 26 36 -5 7 -2 8 5 3 9 -5 5 -15 -15 -36z m-4049 7 c17 -1 -24 -3 -90
-3 -66 -1 -110 2 -97 5 21 7 119 5 187 -2z m2075 0 c19 -1 -18 -3 -82 -4 -65
-1 -118 1 -118 6 0 6 118 6 200 -2z m502 -83 c2 -28 0 -49 -4 -46 -5 2 -7 37
-7 76 2 74 6 62 11 -30z m-1949 80 c-29 -2 -78 -2 -110 0 -32 2 -8 3 52 3 61
0 87 -1 58 -3z m1980 -144 c-4 -4 -6 29 -3 74 l5 82 3 -74 c2 -41 -1 -78 -5
-82z m590 126 c-3 -9 -8 -14 -10 -11 -3 3 -2 9 2 15 9 16 15 13 8 -4z m-2491
-37 c-6 -6 -42 -10 -81 -9 -67 1 -97 -13 -48 -22 19 -4 18 -4 -5 -6 -22 -1
-28 3 -28 20 0 18 6 20 53 19 101 -3 107 -2 108 23 1 18 2 19 6 3 3 -10 0 -23
-5 -28z m45 20 c2 -17 0 -19 -7 -8 -5 8 -6 18 -4 22 8 12 10 10 11 -14z m713
4 c0 -10 -6 -27 -14 -38 -13 -17 -13 -15 -3 19 13 41 17 46 17 19z m1832 -34
c3 -27 2 -48 -1 -48 -4 0 -8 24 -10 52 -3 64 4 61 11 -4z m-2439 25 c-7 -2
-19 -2 -25 0 -7 3 -2 5 12 5 14 0 19 -2 13 -5z m355 -71 c3 -71 3 -72 -23 -72
-24 0 -25 2 -25 68 0 72 4 85 30 80 11 -3 16 -20 18 -76z m349 72 c-3 -3 -12
-4 -19 -1 -8 3 -5 6 6 6 11 1 17 -2 13 -5z m667 -62 c0 -33 -2 -58 -6 -55 -5
2 -8 32 -8 65 0 78 12 69 14 -10z m-1727 6 c-2 -13 -4 -5 -4 17 -1 22 1 32 4
23 2 -10 2 -28 0 -40z m2480 15 c-3 -10 -5 -4 -5 12 0 17 2 24 5 18 2 -7 2
-21 0 -30z m76 30 c-13 -2 -23 -8 -23 -13 0 -4 10 -14 23 -23 32 -21 67 -53
67 -61 0 -4 -22 12 -50 36 -56 49 -63 69 -22 67 23 -2 24 -2 5 -6z m478 -63
c-2 -49 1 -60 14 -60 12 0 15 11 14 55 -1 30 1 58 4 62 4 3 7 -24 7 -60 0 -65
-1 -67 -25 -67 -24 0 -25 2 -25 72 0 39 3 68 7 65 3 -4 5 -34 4 -67z m-2441
40 c0 -19 -7 -20 -95 -20 -88 0 -95 1 -95 20 0 19 7 20 95 20 88 0 95 -1 95
-20z m469 -17 c2 -2 -3 -3 -12 -3 -9 0 -22 10 -28 23 l-12 22 24 -20 c13 -11
26 -21 28 -22z m217 22 c10 -8 14 -15 7 -15 -6 0 -15 5 -18 11 -5 6 -44 9
-106 8 -54 -2 -102 0 -105 4 -4 4 40 7 97 7 77 0 110 -4 125 -15z m257 8 c-67
-4 -91 -14 -60 -26 7 -3 5 -6 -5 -6 -12 -1 -18 6 -18 19 0 18 6 20 78 18 l77
-2 -72 -3z m107 -13 c0 -13 -6 -20 -17 -19 -11 0 -13 3 -5 6 6 2 12 11 12 19
0 8 2 14 5 14 3 0 5 -9 5 -20z m1013 13 c-7 -2 -19 -2 -25 0 -7 3 -2 5 12 5
14 0 19 -2 13 -5z m-906 -55 c-2 -13 -4 -5 -4 17 -1 22 1 32 4 23 2 -10 2 -28
0 -40z m963 37 c-7 -8 -20 -14 -29 -14 -13 1 -13 2 2 6 9 2 17 9 17 14 0 5 5
9 11 9 8 0 8 -5 -1 -15z m-263 -17 c-3 -8 -6 -5 -6 6 -1 11 2 17 5 13 3 -3 4
-12 1 -19z m190 10 c-3 -7 14 -32 36 -55 31 -32 37 -43 23 -43 -9 0 -15 4 -12
8 3 5 -10 22 -28 39 -31 30 -43 63 -23 63 5 0 7 -6 4 -12z m-2457 -8 c12 -8 9
-9 -12 -8 -15 1 -24 6 -22 10 7 10 16 10 34 -2z m1008 3 c-15 -2 -42 -2 -60 0
-18 2 -6 4 27 4 33 0 48 -2 33 -4z m380 0 c-16 -2 -40 -2 -55 0 -16 2 -3 4 27
4 30 0 43 -2 28 -4z m-300 -28 c-3 -3 -9 2 -12 12 -6 14 -5 15 5 6 7 -7 10
-15 7 -18z m1084 -7 c-8 -8 -9 -4 -5 13 4 13 8 18 11 10 2 -7 -1 -18 -6 -23z
m-1457 -8 c10 -11 16 -20 13 -20 -3 0 -13 9 -23 20 -10 11 -16 20 -13 20 3 0
13 -9 23 -20z m2502 -17 c-3 -10 -5 -4 -5 12 0 17 2 24 5 18 2 -7 2 -21 0 -30z
m-3969 0 c-26 -2 -71 -2 -100 0 -29 2 -8 3 47 3 55 0 79 -1 53 -3z m655 0 c-7
-2 -21 -2 -30 0 -10 3 -4 5 12 5 17 0 24 -2 18 -5z m70 0 c-7 -2 -21 -2 -30 0
-10 3 -4 5 12 5 17 0 24 -2 18 -5z m350 0 c-23 -2 -64 -2 -90 0 -26 2 -7 3 42
3 50 0 71 -1 48 -3z m84 1 c-3 -3 -12 -4 -19 -1 -8 3 -5 6 6 6 11 1 17 -2 13
-5z m466 -1 c-7 -2 -19 -2 -25 0 -7 3 -2 5 12 5 14 0 19 -2 13 -5z m135 0
c-15 -2 -42 -2 -60 0 -18 2 -6 4 27 4 33 0 48 -2 33 -4z m103 -16 c-10 -9 -11
-8 -5 6 3 10 9 15 12 12 3 -3 0 -11 -7 -18z m276 16 c-20 -2 -52 -2 -70 0 -17
2 0 4 38 4 39 0 53 -2 32 -4z m73 -13 c0 -11 -2 -20 -4 -20 -2 0 -6 9 -9 20
-3 11 -1 20 4 20 5 0 9 -9 9 -20z m257 13 c-20 -2 -52 -2 -70 0 -17 2 0 4 38
4 39 0 53 -2 32 -4z m188 -13 c16 -17 16 -20 3 -15 -9 4 -19 13 -22 21 -7 19
-2 18 19 -6z m173 13 c-21 -2 -57 -2 -80 0 -24 2 -7 4 37 4 44 0 63 -2 43 -4z
m91 -24 c-24 -15 -30 -10 -11 9 9 10 19 14 21 9 2 -5 -3 -13 -10 -18z m131 11
c0 -13 -7 -20 -20 -20 -13 0 -20 6 -19 18 0 10 3 12 6 5 7 -18 23 -16 23 2 0
8 2 15 5 15 3 0 5 -9 5 -20z m184 -19 c-5 -6 -34 20 -34 30 0 5 8 1 18 -8 10
-10 17 -20 16 -22z m-2904 14 c0 -10 -9 -15 -27 -14 -24 2 -25 2 -5 6 12 2 22
9 22 14 0 5 2 9 5 9 3 0 5 -7 5 -15z m2227 -7 c-3 -8 -6 -5 -6 6 -1 11 2 17 5
13 3 -3 4 -12 1 -19z m-2467 0 c0 -5 -48 -8 -107 -8 -60 0 -103 4 -96 8 15 9
203 9 203 0z m1070 2 c0 -5 -12 -10 -27 -9 l-28 1 25 8 c14 4 26 8 28 9 1 1 2
-3 2 -9z m-522 -7 c-15 -2 -42 -2 -60 0 -18 2 -6 4 27 4 33 0 48 -2 33 -4z
m105 0 c-13 -2 -33 -2 -45 0 -13 2 -3 4 22 4 25 0 35 -2 23 -4z m300 0 c-29
-2 -77 -2 -105 0 -29 2 -6 3 52 3 58 0 81 -1 53 -3z m574 1 c-3 -3 -12 -4 -19
-1 -8 3 -5 6 6 6 11 1 17 -2 13 -5z m491 -1 c-27 -2 -69 -2 -95 0 -27 2 -5 3
47 3 52 0 74 -1 48 -3z m219 1 c-3 -3 -12 -4 -19 -1 -8 3 -5 6 6 6 11 1 17 -2
13 -5z m56 -1 c-7 -2 -21 -2 -30 0 -10 3 -4 5 12 5 17 0 24 -2 18 -5z m380 0
c-7 -2 -21 -2 -30 0 -10 3 -4 5 12 5 17 0 24 -2 18 -5z m110 0 c-7 -2 -21 -2
-30 0 -10 3 -4 5 12 5 17 0 24 -2 18 -5z"/>
<path d="M5050 6910 c-46 -34 -225 -147 -280 -177 -30 -17 -56 -35 -58 -41 -1
-5 19 -22 45 -37 58 -34 163 -119 258 -209 39 -36 71 -66 73 -66 1 0 2 124 2
275 0 151 -3 275 -7 274 -5 0 -19 -8 -33 -19z"/>
<path d="M3571 6094 c0 -11 3 -14 6 -6 3 7 2 16 -1 19 -3 4 -6 -2 -5 -13z"/>
<path d="M3568 5945 c-4 -32 -3 -120 3 -195 5 -74 10 -157 11 -183 1 -48 13
-52 21 -7 3 18 5 14 6 -13 1 -40 24 -49 28 -11 3 18 2 18 -7 -1 -7 -16 -9 -11
-9 25 1 76 -9 184 -20 210 -9 22 -10 23 -12 5 -2 -28 -17 73 -17 115 l1 35 7
-40 c6 -33 7 -35 8 -10 0 17 -3 53 -7 80 l-7 50 -6 -60z m29 -332 c-3 -10 -5
-4 -5 12 0 17 2 24 5 18 2 -7 2 -21 0 -30z"/>
<path d="M3635 5405 c4 -22 11 -47 15 -55 6 -9 7 0 3 25 -3 22 -10 47 -15 55
-6 10 -7 1 -3 -25z"/>
<path d="M3616 5365 c-3 -9 -6 -22 -5 -28 0 -7 5 -1 10 12 5 13 8 26 5 28 -2
2 -6 -3 -10 -12z"/>
<path d="M3657 5308 c-6 -22 10 -64 20 -54 3 3 1 11 -5 19 -6 7 -9 23 -5 35 3
12 3 22 0 22 -2 0 -7 -10 -10 -22z"/>
<path d="M3621 5274 c0 -11 3 -14 6 -6 3 7 2 16 -1 19 -3 4 -6 -2 -5 -13z"/>
<path d="M3662 5195 c0 -16 2 -22 5 -12 2 9 2 23 0 30 -3 6 -5 -1 -5 -18z"/>
<path d="M3650 5131 c0 -14 32 -30 48 -24 6 3 12 9 12 15 0 7 -5 6 -14 -1 -11
-9 -18 -8 -30 4 -9 9 -16 12 -16 6z"/>
<path d="M5180 6830 c0 -11 4 -20 8 -20 4 0 8 9 8 20 0 11 -4 20 -8 20 -4 0
-8 -9 -8 -20z"/>
<path d="M6275 6780 c3 -5 13 -10 21 -10 8 0 14 5 14 10 0 6 -9 10 -21 10 -11
0 -17 -4 -14 -10z"/>
<path d="M5762 6055 c0 -16 2 -22 5 -12 2 9 2 23 0 30 -3 6 -5 -1 -5 -18z"/>
<path d="M5375 5850 c-3 -5 -2 -10 4 -10 5 0 13 5 16 10 3 6 2 10 -4 10 -5 0
-13 -4 -16 -10z"/>
<path d="M6000 6090 c0 -5 7 -10 16 -10 8 0 12 5 9 10 -3 6 -10 10 -16 10 -5
0 -9 -4 -9 -10z"/>
<path d="M5258 5843 c7 -3 16 -2 19 1 4 3 -2 6 -13 5 -11 0 -14 -3 -6 -6z"/>
<path d="M5490 5551 c0 -5 5 -13 10 -16 6 -3 10 -2 10 4 0 5 -4 13 -10 16 -5
3 -10 2 -10 -4z"/>
<path d="M6277 5260 c-3 -11 -1 -23 4 -26 5 -3 9 6 9 20 0 31 -6 34 -13 6z"/>
<path d="M5726 4313 c-6 -14 -5 -15 5 -6 7 7 10 15 7 18 -3 3 -9 -2 -12 -12z"/>
<path d="M6240 4310 c0 -5 5 -10 10 -10 6 0 10 5 10 10 0 6 -4 10 -10 10 -5 0
-10 -4 -10 -10z"/>
<path d="M5740 3645 c0 -8 5 -15 10 -15 6 0 10 7 10 15 0 8 -4 15 -10 15 -5 0
-10 -7 -10 -15z"/>
<path d="M3315 2180 c10 -11 22 -17 28 -13 6 4 8 0 4 -10 -4 -11 -2 -14 9 -10
13 5 13 8 -1 23 -9 10 -25 20 -37 23 -19 5 -19 5 -3 -13z"/>
<path d="M3360 2130 c0 -13 37 -40 55 -40 17 0 17 2 -3 23 -21 22 -52 32 -52
17z m45 -29 c-6 -5 -25 10 -25 20 0 5 6 4 14 -3 8 -7 12 -15 11 -17z"/>
<path d="M3476 2121 c-12 -14 -14 -21 -6 -26 17 -10 47 22 34 35 -7 7 -16 4
-28 -9z"/>
<path d="M4054 2189 c-5 -8 87 -2 95 7 3 3 -16 4 -42 3 -27 -2 -50 -6 -53 -10z"/>
<path d="M4200 2189 c-43 -6 -42 -6 18 -7 34 -1 62 2 62 7 0 10 -5 10 -80 0z"/>
<path d="M4578 2183 c6 -2 18 -2 25 0 6 3 1 5 -13 5 -14 0 -19 -2 -12 -5z"/>
<path d="M6030 2190 c0 -5 5 -10 10 -10 6 0 10 5 10 10 0 6 -4 10 -10 10 -5 0
-10 -4 -10 -10z"/>
<path d="M6605 2190 c3 -5 8 -10 11 -10 2 0 4 5 4 10 0 6 -5 10 -11 10 -5 0
-7 -4 -4 -10z"/>
<path d="M6630 2190 c0 -5 21 -10 48 -9 35 0 42 3 27 9 -28 12 -75 12 -75 0z"/>
<path d="M7029 2136 c33 -33 63 -57 67 -53 10 10 -16 38 -29 30 -6 -4 -8 0 -4
9 7 19 -50 76 -76 75 -13 0 -2 -17 42 -61z m22 7 c13 -16 12 -17 -3 -4 -10 7
-18 15 -18 17 0 8 8 3 21 -13z"/>
<path d="M4370 2060 c0 -47 3 -60 15 -60 11 0 15 12 15 50 0 29 -5 50 -11 50
-5 0 -7 5 -4 10 3 6 1 10 -4 10 -7 0 -11 -24 -11 -60z"/>
<path d="M4115 2100 c-3 -5 -1 -10 4 -10 6 0 11 5 11 10 0 6 -2 10 -4 10 -3 0
-8 -4 -11 -10z"/>
<path d="M4210 2100 c-32 -7 -30 -7 18 -7 28 0 52 4 52 8 0 10 -19 10 -70 -1z"/>
</g>
</svg>
